<svg width="48" height="48" viewBox="0 0 48 48" fill="none" xmlns="http://www.w3.org/2000/svg">
<path d="M24 0C10.7445 0 0 10.7445 0 24C0 37.2555 10.7445 48 24 48C37.254 48 48 37.254 48 24C48 10.7445 37.254 0 24 0ZM24 45C12.402 45 3.00005 35.598 3.00005 24C3.00005 12.402 12.402 3.00005 24 3.00005C35.598 3.00005 45 12.402 45 24C45 35.598 35.598 45 24 45Z" fill="#6464F7"/>
<path d="M34.9501 15.5896L19.5181 30.8836L13.0966 24.5897C12.5056 24.0031 11.5456 24.0031 10.9546 24.5897C10.3621 25.1762 10.3621 26.1257 10.9546 26.7107L18.4531 34.0591C19.068 34.6006 19.9876 34.6606 20.595 34.0591L37.0935 17.7107C37.6845 17.1256 37.6845 16.1747 37.0935 15.5896C36.5011 15.0046 35.5426 15.0046 34.9501 15.5896Z" fill="#6464F7"/>
</svg>

